<svg width="53" height="53" viewBox="0 0 53 53" fill="none" xmlns="http://www.w3.org/2000/svg">
<g clip-path="url(#clip0_61_96)">
<rect width="53" height="53" rx="10" fill="#ED3F40"/>
<path d="M23.4286 38L14.5429 22.7541H14.9429V37.6793H11V15.2915L14.7143 15L23.3714 30.0418H23.0571V15.2915H27V37.6793L23.4286 38Z" fill="white"/>
<path d="M31.4791 38L29 28H31.0571L32.244 33.4557C32.3055 33.7248 32.3538 34.0243 32.389 34.3542C32.4242 34.6753 32.4593 34.9965 32.4945 35.3177C32.5297 35.6389 32.5648 35.9384 32.6 36.2161H32.2967C32.3582 35.9384 32.4154 35.6345 32.4681 35.3047C32.5209 34.9748 32.5736 34.645 32.6264 34.3151C32.6791 33.9852 32.7407 33.6814 32.811 33.4036L34.1033 28.3646L36.0022 28.3125L37.3209 33.4557C37.3912 33.7248 37.4527 34.0243 37.5055 34.3542C37.567 34.6753 37.6198 34.9965 37.6637 35.3177C37.7077 35.6389 37.7429 35.9384 37.7692 36.2161H37.4396C37.5099 35.9384 37.567 35.6345 37.611 35.3047C37.6637 34.9748 37.7121 34.645 37.756 34.3151C37.8088 33.9852 37.8659 33.6814 37.9275 33.4036L39.0615 28L41 28L38.4022 38H36.7143L35.2637 32.5703C35.1934 32.2925 35.1319 32.0321 35.0791 31.7891C35.0264 31.546 34.978 31.303 34.9341 31.0599C34.8989 30.8082 34.8549 30.5477 34.8022 30.2786H35.1978C35.1538 30.5477 35.1099 30.8082 35.0659 31.0599C35.022 31.303 34.9736 31.5547 34.9209 31.8151C34.8681 32.0668 34.7978 32.3359 34.7099 32.6224L33.233 38H31.4791Z" fill="white"/>
</g>
<defs>
<clipPath id="clip0_61_96">
<rect width="53" height="53" fill="white"/>
</clipPath>
</defs>
</svg>
